<?xml version="1.0" encoding="UTF-8" standalone="no"?>
<!-- Created with Inkscape (http://www.inkscape.org/) -->

<svg
   version="1.1"
   id="svg2"
   width="566.93335"
   height="566.93335"
   viewBox="0 0 566.93335 566.93335"
   sodipodi:docname="cup.eps"
   xmlns:inkscape="http://www.inkscape.org/namespaces/inkscape"
   xmlns:sodipodi="http://sodipodi.sourceforge.net/DTD/sodipodi-0.dtd"
   xmlns="http://www.w3.org/2000/svg"
   xmlns:svg="http://www.w3.org/2000/svg">
  <defs
     id="defs6" />
  <sodipodi:namedview
     id="namedview4"
     pagecolor="#ffffff"
     bordercolor="#000000"
     borderopacity="0.25"
     inkscape:showpageshadow="2"
     inkscape:pageopacity="0.0"
     inkscape:pagecheckerboard="0"
     inkscape:deskcolor="#d1d1d1" />
  <g
     id="g8"
     inkscape:groupmode="layer"
     inkscape:label="ink_ext_XXXXXX"
     transform="matrix(1.3333333,0,0,-1.3333333,0,566.93333)">
    <g
       id="g10"
       transform="scale(0.1)">
      <path
         d="m 2604.07,668.57 c 0,-126.679 -260.38,-229.359 -581.58,-229.359 -113.87,0 -220,12.949 -309.69,35.25 114.87,-30.902 257.97,-49.262 413.19,-49.262 378.35,0 685.08,108.949 685.08,243.36 0,46.382 -36.56,89.722 -99.96,126.613 -36.39,-31.621 -75.02,-60.723 -115.9,-86.91 5.72,-12.903 8.86,-26.153 8.86,-39.692"
         style="fill:#8a2a1c;fill-opacity:1;fill-rule:nonzero;stroke:none"
         id="path12" />
      <path
         d="m 2125.99,2225.56 c -523.57,0 -964.96,123.7 -1100.76,292.52 -1.15,-193.12 8.64,-386.29 29.63,-578.32 25.9,-237.04 69.3,-474.7 164.7,-694.15 27.97,-64.32 60.85,-127.02 98.38,-186.83 82.28,-50.49 174.37,-82.71 275.5,-86.069 136.13,-4.531 268.93,38.609 368.61,132.209 105.56,99.1 176.88,235.53 293.93,322.07 68.48,50.64 141.28,55.97 219.05,21.35 75.39,-33.56 142.44,-84.78 228.35,-86.01 181.69,-2.61 338.91,145.94 433.9,287.07 8.21,12.19 16.09,24.55 23.74,37.04 15.29,83.95 26.84,168.66 36.09,253.32 20.98,192.03 30.77,385.21 29.63,578.32 -135.8,-168.82 -577.19,-292.52 -1100.75,-292.52"
         style="fill:#a9471e;fill-opacity:1;fill-rule:nonzero;stroke:none"
         id="path14" />
      <path
         d="m 2703.38,1362.33 c -85.91,1.23 -152.96,52.45 -228.35,86.01 -77.77,34.62 -150.57,29.29 -219.05,-21.35 -117.05,-86.54 -188.37,-222.97 -293.93,-322.07 -99.68,-93.6 -232.48,-136.74 -368.61,-132.209 -101.13,3.359 -193.22,35.579 -275.5,86.069 -0.01,0 -0.01,0 -0.01,0 0.01,-0.01 0.02,-0.03 0.03,-0.04 5.35,-8.53 10.82,-16.99 16.36,-25.4 0.88,-1.33 1.77,-2.64 2.65,-3.97 16.08,-24.17 32.98,-47.792 50.67,-70.78 2.22,-2.891 4.45,-5.762 6.69,-8.621 5.26,-6.707 10.56,-13.399 15.96,-20 2.25,-2.75 4.57,-5.438 6.85,-8.168 8.94,-10.731 18.07,-21.281 27.39,-31.66 4,-4.461 8,-8.922 12.07,-13.321 4.55,-4.922 9.15,-9.8 13.8,-14.64 5.22,-5.442 10.53,-10.801 15.86,-16.129 4.57,-4.582 9.14,-9.16 13.79,-13.653 7.8,-7.527 15.71,-14.937 23.74,-22.218 3.7,-3.371 7.47,-6.68 11.23,-9.989 1.46,-1.3 2.9,-2.613 4.38,-3.902 -56.63,-33.238 -91.75,-72.641 -97.59,-115.117 0,-0.043 -0.01,-0.07 -0.02,-0.113 -0.56,-4.141 -0.89,-8.297 -0.89,-12.489 0,-0.011 0,-0.011 0,-0.011 0,-0.028 0.01,-0.071 0.01,-0.098 0,-4.16 0.32,-8.281 0.88,-12.383 0.02,-0.109 0.05,-0.219 0.07,-0.34 10.68,-76.41 116.22,-142.797 270.94,-181.277 89.69,-22.301 195.82,-35.25 309.69,-35.25 321.2,0 581.58,102.68 581.58,229.359 0,13.539 -3.14,26.789 -8.86,39.692 40.88,26.187 79.51,55.289 115.9,86.91 21.27,18.476 41.76,37.808 61.5,57.898 14.77,15.032 29.22,30.379 43.13,46.219 16.43,18.711 32.16,38.031 47.39,57.75 13.22,17.109 26.14,34.449 38.46,52.241 17.15,24.75 33.42,50.12 48.83,75.99 15.4,25.86 29.94,52.23 43.6,79 13.67,26.76 26.46,53.91 38.39,81.34 6.98,16.07 13.61,32.26 20.05,48.52 1.91,4.82 3.73,9.66 5.59,14.5 4.6,11.93 9.08,23.9 13.4,35.92 1.79,4.98 3.58,9.95 5.32,14.95 4.84,13.84 9.51,27.75 14,41.7 0.84,2.6 1.73,5.18 2.55,7.78 5.5,17.34 10.76,34.75 15.76,52.24 0.45,1.55 0.86,3.12 1.3,4.67 4.49,15.85 8.79,31.75 12.91,47.71 0.81,3.14 1.6,6.28 2.39,9.42 3.99,15.75 7.83,31.54 11.48,47.38 0.37,1.63 0.77,3.26 1.14,4.9 8.4,36.83 15.94,73.9 22.72,111.11 0,0.01 0,0.02 0,0.03 v 0 c -7.65,-12.49 -15.53,-24.85 -23.74,-37.04 -94.99,-141.13 -252.21,-289.68 -433.9,-287.07"
         style="fill:#94341d;fill-opacity:1;fill-rule:nonzero;stroke:none"
         id="path16" />
      <path
         d="m 2024.7,2961.3 c 29.71,1.07 59.78,1.76 90.2,2 4.83,22.49 11.38,44.74 19.07,66.66 -2.67,0 -5.32,0.03 -7.98,0.03 -29.03,0 -57.79,-0.38 -86.27,-1.13 -3.24,-10.35 -6.27,-20.76 -8.72,-31.36 -2.77,-11.97 -4.81,-24.06 -6.3,-36.2"
         style="fill:#632917;fill-opacity:1;fill-rule:nonzero;stroke:none"
         id="path18" />
      <path
         d="m 2125.99,2225.56 c 523.56,0 964.95,123.7 1100.75,292.52 28.05,34.87 43.07,71.67 43.07,109.7 0,195.54 -396.85,358.46 -922.76,394.68 -7.85,-10.59 -15.53,-21.29 -22.89,-32.19 -6.82,-10.08 -13.98,-20.44 -21.26,-31.01 177.68,-9.11 340.33,-32.89 475.74,-67.44 13.01,-3.32 25.78,-6.75 38.28,-10.26 118.79,-33.41 213.88,-75.46 276,-123.14 3.27,-2.51 6.45,-5.04 9.53,-7.58 6.17,-5.08 11.97,-10.22 17.39,-15.42 2.71,-2.6 5.32,-5.21 7.84,-7.84 15.1,-15.76 26.72,-32.02 34.56,-48.69 1.31,-2.78 2.51,-5.57 3.61,-8.37 2.19,-5.59 3.96,-11.24 5.29,-16.92 2,-8.52 3.02,-17.13 3.02,-25.82 0,-3.82 -0.27,-7.61 -0.66,-11.39 -0.1,-0.97 -0.22,-1.93 -0.34,-2.89 -0.46,-3.56 -1.04,-7.1 -1.84,-10.62 -0.05,-0.24 -0.08,-0.47 -0.14,-0.71 -0.86,-3.73 -1.98,-7.44 -3.22,-11.14 -0.31,-0.92 -0.64,-1.84 -0.97,-2.77 -1.21,-3.35 -2.55,-6.69 -4.07,-10.01 -0.17,-0.38 -0.31,-0.77 -0.49,-1.14 -1.7,-3.66 -3.63,-7.28 -5.69,-10.89 -0.49,-0.87 -1.02,-1.74 -1.53,-2.6 -1.91,-3.2 -3.94,-6.38 -6.12,-9.54 -0.33,-0.48 -0.63,-0.97 -0.97,-1.45 -2.5,-3.55 -5.21,-7.08 -8.06,-10.59 -0.67,-0.82 -1.36,-1.64 -2.05,-2.46 -2.54,-3.04 -5.21,-6.07 -8.01,-9.07 -0.38,-0.41 -0.7,-0.83 -1.09,-1.23 0,0 -0.01,0.01 -0.02,0.02 -129.61,-137.3 -523.11,-237.14 -988.47,-237.14 -465.35,0 -858.85,99.84 -988.47,237.14 0,-0.01 -0.01,-0.02 -0.02,-0.02 -0.38,0.4 -0.71,0.82 -1.09,1.23 -2.8,3 -5.46,6.03 -8.01,9.07 -0.68,0.82 -1.38,1.64 -2.04,2.46 -2.85,3.51 -5.56,7.03 -8.06,10.59 -0.35,0.49 -0.65,0.98 -0.99,1.47 -2.17,3.15 -4.19,6.32 -6.09,9.5 -0.52,0.88 -1.05,1.75 -1.55,2.62 -2.06,3.61 -3.99,7.24 -5.69,10.89 -0.18,0.37 -0.32,0.76 -0.49,1.13 -1.51,3.33 -2.85,6.68 -4.07,10.03 -0.33,0.92 -0.66,1.83 -0.96,2.75 -1.25,3.71 -2.36,7.42 -3.23,11.16 -0.05,0.22 -0.08,0.45 -0.13,0.67 -0.8,3.54 -1.39,7.09 -1.84,10.66 -0.13,0.95 -0.24,1.91 -0.34,2.87 -0.39,3.78 -0.66,7.58 -0.66,11.4 0,57.23 44.18,111.11 121.99,158.26 2.58,1.57 5.23,3.13 7.89,4.68 6.71,3.92 13.62,7.8 20.8,11.62 54.01,28.74 120.99,54.63 198.25,76.83 18.24,5.24 37.05,10.27 56.41,15.09 7.83,1.95 15.74,3.87 23.75,5.75 3.6,0.84 7.2,1.68 10.83,2.51 31.15,7.11 63.57,13.68 97.12,19.66 9.81,1.74 19.71,3.44 29.71,5.09 12.56,2.07 25.27,4.06 38.12,5.96 23.78,3.53 48.03,6.78 72.75,9.72 2.41,23.92 7.32,47.55 14.93,70.36 -472.49,-49.44 -817.08,-203.32 -817.08,-385.53 0,-38.03 15.024,-74.83 43.07,-109.7 135.8,-168.82 577.19,-292.52 1100.76,-292.52"
         style="fill:#632917;fill-opacity:1;fill-rule:nonzero;stroke:none"
         id="path20" />
      <path
         d="m 2207.29,2765.64 c -3.56,-29.13 0.39,-57.75 15.69,-84.99 -38.69,16.93 -68.27,48.24 -88.02,85.71 -27.6,-0.04 -54.96,-0.42 -82.01,-1.15 30.01,-71.67 80.6,-134.72 146.47,-176.12 -120.09,-33.87 -252.57,3.26 -335,96.91 -17.13,19.45 -31.52,41.07 -43.39,64.01 -319.27,-33.65 -570.49,-116.32 -669.08,-220.71 129.62,-137.3 523.12,-237.14 988.47,-237.14 465.36,0 858.86,99.84 988.47,237.14 -123.38,130.65 -485.8,227.29 -921.6,236.34"
         style="fill:#d38949;fill-opacity:1;fill-rule:nonzero;stroke:none"
         id="path22" />
      <path
         d="m 2106.56,2871.07 c -1.54,31.09 1.82,61.89 8.34,92.23 -30.42,-0.24 -60.49,-0.93 -90.2,-2 -8.13,-66.25 2.39,-134.37 28.25,-196.09 27.05,0.73 54.41,1.11 82.01,1.15 -16.89,32.06 -26.62,68.61 -28.4,104.71"
         style="fill:#fbc06c;fill-opacity:1;fill-rule:nonzero;stroke:none"
         id="path24" />
      <path
         d="m 2207.29,2765.64 c 435.8,-9.05 798.22,-105.69 921.6,-236.34 0.01,-0.01 0.02,-0.02 0.02,-0.02 0.39,0.4 0.71,0.82 1.09,1.23 2.8,3 5.47,6.03 8.01,9.07 0.69,0.82 1.38,1.64 2.05,2.46 2.85,3.51 5.56,7.04 8.06,10.59 0.34,0.48 0.64,0.97 0.97,1.45 2.18,3.16 4.21,6.34 6.12,9.54 0.51,0.86 1.04,1.73 1.53,2.6 2.06,3.61 3.99,7.23 5.69,10.89 0.18,0.37 0.32,0.76 0.49,1.14 1.52,3.32 2.86,6.66 4.07,10.01 0.33,0.93 0.66,1.85 0.97,2.77 1.24,3.7 2.35,7.41 3.22,11.14 0.06,0.24 0.09,0.47 0.14,0.71 0.8,3.52 1.38,7.06 1.84,10.62 0.12,0.96 0.24,1.92 0.34,2.89 0.39,3.78 0.66,7.57 0.66,11.39 0,8.69 -1.02,17.3 -3.02,25.82 -1.33,5.68 -3.1,11.33 -5.29,16.92 -1.1,2.8 -2.3,5.59 -3.61,8.37 -7.84,16.67 -19.46,32.93 -34.56,48.69 -2.52,2.63 -5.13,5.24 -7.84,7.84 -5.42,5.2 -11.22,10.34 -17.39,15.42 -3.08,2.54 -6.26,5.07 -9.53,7.58 -62.12,47.68 -157.21,89.73 -276,123.14 -12.5,3.51 -25.27,6.94 -38.28,10.26 -135.41,34.55 -298.06,58.33 -475.74,67.44 -41.82,-60.69 -87.63,-128.44 -95.61,-193.62"
         style="fill:#fbc06c;fill-opacity:1;fill-rule:nonzero;stroke:none"
         id="path26" />
      <path
         d="m 1821.03,2750.01 c -30.48,58.88 -43.37,126.94 -36.72,192.94 -24.72,-2.94 -48.97,-6.19 -72.75,-9.72 -12.85,-1.9 -25.56,-3.89 -38.12,-5.96 -10,-1.65 -19.9,-3.35 -29.71,-5.09 -33.55,-5.98 -65.97,-12.55 -97.12,-19.66 -3.63,-0.83 -7.23,-1.67 -10.83,-2.51 -8.01,-1.88 -15.92,-3.8 -23.75,-5.75 -19.36,-4.82 -38.17,-9.85 -56.41,-15.09 -77.26,-22.2 -144.24,-48.09 -198.25,-76.83 -7.18,-3.82 -14.09,-7.7 -20.8,-11.62 -2.66,-1.55 -5.31,-3.11 -7.89,-4.68 -77.81,-47.15 -121.99,-101.03 -121.99,-158.26 0,-3.82 0.27,-7.62 0.66,-11.4 0.1,-0.96 0.21,-1.92 0.34,-2.87 0.45,-3.57 1.04,-7.12 1.84,-10.66 0.05,-0.22 0.08,-0.45 0.13,-0.67 0.87,-3.74 1.98,-7.45 3.23,-11.16 0.3,-0.92 0.63,-1.83 0.96,-2.75 1.22,-3.35 2.56,-6.7 4.07,-10.03 0.17,-0.37 0.31,-0.76 0.49,-1.13 1.7,-3.65 3.63,-7.28 5.69,-10.89 0.5,-0.87 1.03,-1.74 1.55,-2.62 1.9,-3.18 3.92,-6.35 6.09,-9.5 0.34,-0.49 0.64,-0.98 0.99,-1.47 2.5,-3.56 5.21,-7.08 8.06,-10.59 0.66,-0.82 1.36,-1.64 2.04,-2.46 2.55,-3.04 5.21,-6.07 8.01,-9.07 0.38,-0.41 0.71,-0.83 1.09,-1.23 0.01,0 0.02,0.01 0.02,0.02 98.59,104.39 349.81,187.06 669.08,220.71"
         style="fill:#fbc06c;fill-opacity:1;fill-rule:nonzero;stroke:none"
         id="path28" />
      <path
         d="m 1537.08,1919.78 c -4.06,52.75 -2.94,107.54 -18.3,156.23 -15.35,48.7 -51.54,91.67 -103.7,95.45 -158.5,11.51 -199.96,-203.12 -203.13,-327.93 -0.35,-13.76 -0.23,-26.43 0.24,-37.58 11.59,-271.47 124.89,-587.09 363.72,-702.85 44.49,-21.56 100.63,-27.12 152.1,-4.18 200.12,89.2 17.67,286.03 -33.62,372.86 -79.16,134.04 -144.48,281.45 -157.31,448"
         style="fill:#b3582e;fill-opacity:1;fill-rule:nonzero;stroke:none"
         id="path30" />
      <path
         d="m 1590.39,2576.77 c 0,16.94 -29.03,30.67 -64.83,30.67 -35.8,0 -64.82,-13.73 -64.82,-30.67 0,-16.94 29.02,-30.67 64.82,-30.67 35.8,0 64.83,13.73 64.83,30.67"
         style="fill:#c0682f;fill-opacity:1;fill-rule:nonzero;stroke:none"
         id="path32" />
      <path
         d="m 1619.2,2546.1 c -35.8,0 -64.83,-13.73 -64.83,-30.67 0,-16.93 29.03,-30.66 64.83,-30.66 35.8,0 64.82,13.73 64.82,30.66 0,16.94 -29.02,30.67 -64.82,30.67"
         style="fill:#c0682f;fill-opacity:1;fill-rule:nonzero;stroke:none"
         id="path34" />
      <path
         d="m 2388.72,2534.1 c -35.8,0 -64.82,-13.73 -64.82,-30.67 0,-16.94 29.02,-30.67 64.82,-30.67 35.81,0 64.83,13.73 64.83,30.67 0,16.94 -29.02,30.67 -64.83,30.67"
         style="fill:#c0682f;fill-opacity:1;fill-rule:nonzero;stroke:none"
         id="path36" />
      <path
         d="m 2947.97,2480.52 c 26.74,0 48.42,10.26 48.42,22.91 0,12.65 -21.68,22.91 -48.42,22.91 -26.75,0 -48.43,-10.26 -48.43,-22.91 0,-12.65 21.68,-22.91 48.43,-22.91"
         style="fill:#c0682f;fill-opacity:1;fill-rule:nonzero;stroke:none"
         id="path38" />
      <path
         d="m 2592.03,2501.14 c -42.41,0 -76.79,-16.27 -76.79,-36.33 0,-20.06 34.38,-36.33 76.79,-36.33 42.4,0 76.78,16.27 76.78,36.33 0,20.06 -34.38,36.33 -76.78,36.33"
         style="fill:#c0682f;fill-opacity:1;fill-rule:nonzero;stroke:none"
         id="path40" />
      <path
         d="m 1990.95,2447.67 c -42.4,0 -76.78,-16.26 -76.78,-36.33 0,-20.06 34.38,-36.32 76.78,-36.32 42.41,0 76.79,16.26 76.79,36.32 0,20.07 -34.38,36.33 -76.79,36.33"
         style="fill:#c0682f;fill-opacity:1;fill-rule:nonzero;stroke:none"
         id="path42" />
      <path
         d="m 1443.93,2542.05 c -45.08,0 -81.63,-17.29 -81.63,-38.62 0,-21.33 36.55,-38.62 81.63,-38.62 45.08,0 81.63,17.29 81.63,38.62 0,21.33 -36.55,38.62 -81.63,38.62"
         style="fill:#c0682f;fill-opacity:1;fill-rule:nonzero;stroke:none"
         id="path44" />
      <path
         d="m 2575.26,2584.72 c 0,-21.33 36.55,-38.62 81.63,-38.62 45.09,0 81.63,17.29 81.63,38.62 0,21.33 -36.54,38.62 -81.63,38.62 -45.08,0 -81.63,-17.29 -81.63,-38.62"
         style="fill:#c0682f;fill-opacity:1;fill-rule:nonzero;stroke:none"
         id="path46" />
      <path
         d="m 2114.9,2963.3 c -6.52,-30.34 -9.88,-61.14 -8.34,-92.23 1.78,-36.1 11.51,-72.65 28.4,-104.71 19.75,-37.47 49.33,-68.78 88.02,-85.71 -15.3,27.24 -19.25,55.86 -15.69,84.99 7.98,65.18 53.79,132.93 95.61,193.62 7.28,10.57 14.44,20.93 21.26,31.01 7.36,10.9 15.04,21.6 22.89,32.19 59.85,80.68 131.14,154.23 170.35,246.42 59.28,139.36 31.52,311.62 -68.55,425.31 -100.06,113.68 -260.86,158.74 -406.62,117.63 161.43,-101.47 247.41,-309.97 204.42,-495.72 -17.67,-76.36 -54.3,-146.7 -85.71,-218.5 -9.69,-22.13 -18.93,-44.71 -26.97,-67.64 -7.69,-21.92 -14.24,-44.17 -19.07,-66.66 v 0"
         style="fill:#efefed;fill-opacity:1;fill-rule:nonzero;stroke:none"
         id="path48" />
      <path
         d="m 1784.31,2942.95 c -6.65,-66 6.24,-134.06 36.72,-192.94 11.87,-22.94 26.26,-44.56 43.39,-64.01 82.43,-93.65 214.91,-130.78 335,-96.91 -65.87,41.4 -116.46,104.45 -146.47,176.12 -25.86,61.72 -36.38,129.84 -28.25,196.09 v 0 c 1.49,12.14 3.53,24.23 6.3,36.2 2.45,10.6 5.48,21.01 8.72,31.36 16.01,51.07 40.38,99.47 61.9,148.66 25.88,59.15 47.99,122.14 44.8,186.62 -3.19,64.49 -36.77,131 -95.92,156.89 45.73,-81.4 -31.08,-177.73 -83.35,-255.1 -52.27,-77.36 -122.67,-143.61 -159.21,-229.53 -3.23,-7.58 -6.09,-15.29 -8.7,-23.09 -7.61,-22.81 -12.52,-46.44 -14.93,-70.36 v 0"
         style="fill:#efefed;fill-opacity:1;fill-rule:nonzero;stroke:none"
         id="path50" />
    </g>
  </g>
</svg>
