<svg xmlns:inkscape="http://www.inkscape.org/namespaces/inkscape" xmlns:sodipodi="http://sodipodi.sourceforge.net/DTD/sodipodi-0.dtd" xmlns="http://www.w3.org/2000/svg" xmlns:svg="http://www.w3.org/2000/svg" version="1.1" id="svg2" sodipodi:docname="location_ins_multiple_colours.eps" viewBox="1649.04 93.57 862.75 1292.6">
  <defs id="defs6"/>
  <sodipodi:namedview id="namedview4" pagecolor="#ffffff" bordercolor="#000000" borderopacity="0.25" inkscape:showpageshadow="2" inkscape:pageopacity="0.0" inkscape:pagecheckerboard="0" inkscape:deskcolor="#d1d1d1"/>
  <g id="g8" inkscape:groupmode="layer" inkscape:label="ink_ext_XXXXXX" transform="matrix(1.3333333,0,0,-1.3333333,0,2933.3333)">
    <g id="g10" transform="scale(0.1)">

      <path d="m 18838.4,18062.8 c 0,-2784.8 -2203.9,-4893.4 -2973.7,-5545 -151,-127.8 -372.2,-127.8 -523.2,0 -769.8,651.6 -2973.7,2760.2 -2973.7,5545 0,1786.8 1448.5,3235.4 3235.3,3235.4 1786.8,0 3235.3,-1448.6 3235.3,-3235.4" style="fill:#e13a49;fill-opacity:1;fill-rule:nonzero;stroke:none" id="path32"/>
      <path d="m 17676.8,18062.8 c 0,-1145.2 -928.4,-2073.6 -2073.7,-2073.6 -1145.3,0 -2073.7,928.4 -2073.7,2073.6 0,1145.3 928.4,2073.7 2073.7,2073.7 1145.3,0 2073.7,-928.4 2073.7,-2073.7" style="fill:#ffffff;fill-opacity:1;fill-rule:nonzero;stroke:none" id="path34"/>
      <path d="m 17694.7,12341.9 c 0,-407.7 -936.4,-738.2 -2091.6,-738.2 -1155.2,0 -2091.6,330.5 -2091.6,738.2 0,271 413.7,507.9 1030.3,636.3 264.1,-268.6 497.7,-477.6 665.2,-619.4 110.6,-93.6 251.2,-145.1 396.1,-145.1 144.9,0 285.6,51.5 396.2,145.1 167.4,141.8 401,350.8 665.1,619.4 616.6,-128.4 1030.3,-365.3 1030.3,-636.3" style="fill:#e13a49;fill-opacity:1;fill-rule:nonzero;stroke:none" id="path36"/>
    </g>
  </g>
</svg>